<svg
  xmlns="http://www.w3.org/2000/svg"
  width="48"
  height="48"
  viewBox="0 0 48 48"
>
  <path
    fill="#CCCCCC"
    d="M24,48C37.254,48,48,37.254,48,24C48,10.746,37.254,0,24,0C10.746,0,0,10.746,0,24 C0,37.254,10.746,48,24,48z M24,44C12.954,44,4,35.046,4,24C4,12.954,12.954,4,24,4C35.046,4,44,12.954,44,24 C44,35.046,35.046,44,24,44z"
  />
  <circle
    fill="#CCCCCC"
    cx="24"
    cy="14"
    r="10"
  />
  <path
    fill="#CCCCCC"
    d="M24,30c-5.238,0-10.195,2.039-13.981,5.774c-1.24,1.24-1.24,3.256,0,4.496s3.256,1.24,4.496,0 C19.361,36.195,23.328,38.234,28,38.234s8.639-2.039,11.485-5.774c1.24-1.24,1.24-3.256,0-4.496C34.195,32.039,29.238,30,24,30z"
  />
</svg>
